<svg xmlns="http://www.w3.org/2000/svg" width="818" height="500" fill="none" viewBox="0 0 818 500"><g clip-path="url(#a)"><path fill="#f6fff4" d="M0 0h818v500H0z"/><g filter="url(#b)" opacity=".09"><path fill="#076653" d="M89.971 522.998C152.41 365.511 414.93 66.831 965.513 132.013 909.13 295.992 655.086 603.761 89.971 522.998"/></g><g filter="url(#c)" opacity=".09"><path fill="#c4db2c" d="M89.971 522.998C780.503 394.553 414.93 66.831 965.513 132.013 909.13 295.992 655.086 603.761 89.971 522.998"/></g><g filter="url(#d)" opacity=".09"><path fill="#4a9045" d="M436.601 156.227C371.492-102.596 764.192 31.505 968.68 130.908L647.693 247.405c-154.344 39.833-205.038-44.188-211.092-91.178"/></g><g filter="url(#e)" opacity=".09"><path fill="#4a9045" d="M76.417 576.344c-50.935-368.472 336.778-197.811 537.001-66.421L283.751 695.535c-157.604 65.98-203.89-51.969-207.334-119.191"/></g><g filter="url(#f)" opacity=".09"><path fill="#fff" d="M608.434 195.976C390.657 242.974 302.071 379.05 285 441.213l119.738-29.463c19.097 6.994 86.009 6.225 200.879-52.802s49.74-133.242 2.817-162.972"/></g><g filter="url(#g)" opacity=".09"><path fill="#e7ffe2" d="M1012.89-5.063C795.113 41.935 706.527 178.011 689.457 240.175l119.737-29.464c19.097 6.994 86.009 6.225 200.876-52.801 114.87-59.026 49.74-133.243 2.82-162.973"/></g><g filter="url(#h)" opacity=".09"><path fill="#e7ffe2" d="M397.615 123.363c88.195 78.126 173.928 73.3 205.771 61.122l-50.036-41.822c-2.995-10.33-24.265-38.613-85.38-69.107s-72.368 20.499-70.355 49.807"/></g><g filter="url(#i)" opacity=".09"><path fill="#e7ffe2" d="M744.653 521.248c33.785-113.178-21.627-223.98-53.555-265.234l-16.434 64.233c-9.534 3.77-27.998 30.974-25.575 109.63 2.422 78.655 64.719 93.687 95.564 91.371"/></g><g filter="url(#j)" opacity=".09"><path fill="#e7ffe2" d="M546.695 546.843c72.554-50.665 89.673-137.201 89.163-174.136l-39.508 29.899c-7.54-1.823-31.281 6.038-65.923 52.06-34.641 46.022-3.589 80.627 16.268 92.177"/></g><g filter="url(#k)" opacity=".09"><path fill="#e7ffe2" d="M385.021 530.833c33.344-81.971 113.943-117.823 150.075-125.503l-20.41 45.146c3.446 6.95 1.037 31.842-36.174 75.813s-77.832 21.35-93.491 4.544"/></g><g filter="url(#l)"><ellipse cx="209.491" cy="179.588" fill="#fff" rx="188.898" ry="298.847" transform="rotate(-49.02 209.491 179.588)"/></g><path stroke="#b1c0ac" stroke-width=".5" d="M82.25 0v500m4-500v500" opacity=".38"/><path stroke="#b4c5b0" stroke-width=".6" d="M96.3 352v10m209-10v10m209-10v10m209-10v10" opacity=".71"/><path stroke="#b1c0ac" stroke-width=".5" d="M736.25 0v500M0 356.75h818" opacity=".38"/><circle cx="84" cy="357" r="3" fill="#6fa73e"/></g><defs><filter id="b" width="1121.34" height="659.208" x="-32.929" y="-.046" color-interpolation-filters="sRGB" filterUnits="userSpaceOnUse"><feFlood flood-opacity="0" result="BackgroundImageFix"/><feBlend in="SourceGraphic" in2="BackgroundImageFix" result="shape"/><feGaussianBlur result="effect1_foregroundBlur_55_5" stdDeviation="61.45"/></filter><filter id="c" width="1121.34" height="658.533" x="-32.929" y=".628" color-interpolation-filters="sRGB" filterUnits="userSpaceOnUse"><feFlood flood-opacity="0" result="BackgroundImageFix"/><feBlend in="SourceGraphic" in2="BackgroundImageFix" result="shape"/><feGaussianBlur result="effect1_foregroundBlur_55_5" stdDeviation="61.45"/></filter><filter id="d" width="785.075" height="497.315" x="306.505" y="-116.599" color-interpolation-filters="sRGB" filterUnits="userSpaceOnUse"><feFlood flood-opacity="0" result="BackgroundImageFix"/><feBlend in="SourceGraphic" in2="BackgroundImageFix" result="shape"/><feGaussianBlur result="effect1_foregroundBlur_55_5" stdDeviation="61.45"/></filter><filter id="e" width="787.367" height="607.024" x="-51.049" y="230.823" color-interpolation-filters="sRGB" filterUnits="userSpaceOnUse"><feFlood flood-opacity="0" result="BackgroundImageFix"/><feBlend in="SourceGraphic" in2="BackgroundImageFix" result="shape"/><feGaussianBlur result="effect1_foregroundBlur_55_5" stdDeviation="61.45"/></filter><filter id="f" width="630.596" height="491.037" x="162.1" y="73.076" color-interpolation-filters="sRGB" filterUnits="userSpaceOnUse"><feFlood flood-opacity="0" result="BackgroundImageFix"/><feBlend in="SourceGraphic" in2="BackgroundImageFix" result="shape"/><feGaussianBlur result="effect1_foregroundBlur_55_5" stdDeviation="61.45"/></filter><filter id="g" width="630.596" height="491.037" x="566.557" y="-127.963" color-interpolation-filters="sRGB" filterUnits="userSpaceOnUse"><feFlood flood-opacity="0" result="BackgroundImageFix"/><feBlend in="SourceGraphic" in2="BackgroundImageFix" result="shape"/><feGaussianBlur result="effect1_foregroundBlur_55_5" stdDeviation="61.45"/></filter><filter id="h" width="451.786" height="373.08" x="274.499" y="-58.738" color-interpolation-filters="sRGB" filterUnits="userSpaceOnUse"><feFlood flood-opacity="0" result="BackgroundImageFix"/><feBlend in="SourceGraphic" in2="BackgroundImageFix" result="shape"/><feGaussianBlur result="effect1_foregroundBlur_55_5" stdDeviation="61.45"/></filter><filter id="i" width="352.127" height="511.254" x="525.972" y="133.114" color-interpolation-filters="sRGB" filterUnits="userSpaceOnUse"><feFlood flood-opacity="0" result="BackgroundImageFix"/><feBlend in="SourceGraphic" in2="BackgroundImageFix" result="shape"/><feGaussianBlur result="effect1_foregroundBlur_55_5" stdDeviation="61.45"/></filter><filter id="j" width="366.84" height="419.936" x="391.929" y="249.807" color-interpolation-filters="sRGB" filterUnits="userSpaceOnUse"><feFlood flood-opacity="0" result="BackgroundImageFix"/><feBlend in="SourceGraphic" in2="BackgroundImageFix" result="shape"/><feGaussianBlur result="effect1_foregroundBlur_55_5" stdDeviation="61.45"/></filter><filter id="k" width="395.875" height="392.301" x="262.121" y="282.43" color-interpolation-filters="sRGB" filterUnits="userSpaceOnUse"><feFlood flood-opacity="0" result="BackgroundImageFix"/><feBlend in="SourceGraphic" in2="BackgroundImageFix" result="shape"/><feGaussianBlur result="effect1_foregroundBlur_55_5" stdDeviation="61.45"/></filter><filter id="l" width="924.067" height="893.982" x="-252.542" y="-267.403" color-interpolation-filters="sRGB" filterUnits="userSpaceOnUse"><feFlood flood-opacity="0" result="BackgroundImageFix"/><feBlend in="SourceGraphic" in2="BackgroundImageFix" result="shape"/><feGaussianBlur result="effect1_foregroundBlur_55_5" stdDeviation="102.3"/></filter><clipPath id="a"><path fill="#fff" d="M0 0h818v500H0z"/></clipPath></defs></svg>