<svg width="138" height="45" viewBox="0 0 138 45" fill="none" xmlns="http://www.w3.org/2000/svg">
<path d="M37 27C37 20.3726 31.6274 15 25 15H15V27H25V42H37V27Z" fill="url(#paint0_linear_59_20)"/>
<path d="M8.74224e-08 28C8.74282e-07 35.732 6.26801 42 14 42H22V30H14C12.8954 30 12 29.1046 12 28V27H0L8.74224e-08 28Z" fill="url(#paint1_linear_59_20)"/>
<path d="M25 0C39.9117 0 52 12.0883 52 27V42H40V27C40 18.7157 33.2843 12 25 12H14C12.8954 12 12 12.8954 12 14V15H0V14C7.8686e-07 6.26801 6.26802 -3.16941e-08 14 0H25Z" fill="url(#paint2_linear_59_20)"/>
<path d="M58.584 33V15.12H62.304V33H58.584ZM65.2106 33V19.896H68.5706V22.488L68.3786 21.912C68.6826 21.128 69.1706 20.552 69.8426 20.184C70.5306 19.8 71.3306 19.608 72.2426 19.608C73.2346 19.608 74.0986 19.816 74.8346 20.232C75.5866 20.648 76.1706 21.232 76.5866 21.984C77.0026 22.72 77.2106 23.584 77.2106 24.576V33H73.6106V25.344C73.6106 24.832 73.5066 24.392 73.2986 24.024C73.1066 23.656 72.8266 23.368 72.4586 23.16C72.1066 22.952 71.6906 22.848 71.2106 22.848C70.7466 22.848 70.3306 22.952 69.9626 23.16C69.5946 23.368 69.3066 23.656 69.0986 24.024C68.9066 24.392 68.8106 24.832 68.8106 25.344V33H65.2106ZM84.7138 33.288C83.2738 33.288 82.0178 32.952 80.9458 32.28C79.8898 31.592 79.1698 30.672 78.7858 29.52L81.4258 28.272C81.7618 28.976 82.2178 29.528 82.7938 29.928C83.3698 30.328 84.0098 30.528 84.7138 30.528C85.2258 30.528 85.6178 30.424 85.8898 30.216C86.1618 30.008 86.2978 29.72 86.2978 29.352C86.2978 29.16 86.2498 29 86.1538 28.872C86.0578 28.728 85.9138 28.6 85.7218 28.488C85.5298 28.376 85.2898 28.28 85.0018 28.2L82.7698 27.576C81.6978 27.272 80.8738 26.784 80.2978 26.112C79.7218 25.424 79.4338 24.616 79.4338 23.688C79.4338 22.872 79.6418 22.16 80.0578 21.552C80.4738 20.944 81.0578 20.472 81.8098 20.136C82.5618 19.784 83.4258 19.608 84.4018 19.608C85.6818 19.608 86.8018 19.912 87.7618 20.52C88.7378 21.112 89.4258 21.952 89.8258 23.04L87.1618 24.288C86.9698 23.744 86.6178 23.312 86.1058 22.992C85.6098 22.656 85.0418 22.488 84.4018 22.488C83.9378 22.488 83.5698 22.584 83.2978 22.776C83.0418 22.968 82.9138 23.232 82.9138 23.568C82.9138 23.744 82.9618 23.904 83.0578 24.048C83.1538 24.192 83.3058 24.32 83.5138 24.432C83.7378 24.544 84.0098 24.648 84.3298 24.744L86.4178 25.368C87.5058 25.688 88.3378 26.176 88.9138 26.832C89.4898 27.472 89.7778 28.264 89.7778 29.208C89.7778 30.024 89.5618 30.736 89.1298 31.344C88.7138 31.952 88.1298 32.432 87.3778 32.784C86.6258 33.12 85.7378 33.288 84.7138 33.288ZM91.9294 37.8V19.896H95.2894V22.392L94.9774 21.672C95.4094 21.016 95.9934 20.512 96.7294 20.16C97.4814 19.792 98.3374 19.608 99.2974 19.608C100.545 19.608 101.673 19.912 102.681 20.52C103.689 21.128 104.489 21.952 105.081 22.992C105.673 24.016 105.969 25.168 105.969 26.448C105.969 27.712 105.673 28.864 105.081 29.904C104.505 30.944 103.713 31.768 102.705 32.376C101.697 32.984 100.553 33.288 99.2734 33.288C98.3774 33.288 97.5454 33.128 96.7774 32.808C96.0254 32.472 95.4174 31.984 94.9534 31.344L95.5294 30.6V37.8H91.9294ZM98.8414 30.048C99.5134 30.048 100.105 29.896 100.617 29.592C101.129 29.288 101.529 28.864 101.817 28.32C102.105 27.776 102.249 27.152 102.249 26.448C102.249 25.744 102.105 25.128 101.817 24.6C101.529 24.056 101.129 23.632 100.617 23.328C100.105 23.008 99.5134 22.848 98.8414 22.848C98.2014 22.848 97.6254 23 97.1134 23.304C96.6174 23.608 96.2254 24.032 95.9374 24.576C95.6654 25.12 95.5294 25.744 95.5294 26.448C95.5294 27.152 95.6654 27.776 95.9374 28.32C96.2254 28.864 96.6174 29.288 97.1134 29.592C97.6254 29.896 98.2014 30.048 98.8414 30.048ZM114.582 33.288C113.286 33.288 112.102 32.992 111.03 32.4C109.974 31.808 109.126 31 108.486 29.976C107.862 28.936 107.55 27.76 107.55 26.448C107.55 25.12 107.862 23.944 108.486 22.92C109.126 21.896 109.974 21.088 111.03 20.496C112.102 19.904 113.286 19.608 114.582 19.608C115.878 19.608 117.054 19.904 118.11 20.496C119.166 21.088 120.006 21.896 120.63 22.92C121.27 23.944 121.59 25.12 121.59 26.448C121.59 27.76 121.27 28.936 120.63 29.976C120.006 31 119.166 31.808 118.11 32.4C117.054 32.992 115.878 33.288 114.582 33.288ZM114.582 30.048C115.238 30.048 115.806 29.896 116.286 29.592C116.782 29.288 117.166 28.864 117.438 28.32C117.726 27.776 117.87 27.152 117.87 26.448C117.87 25.744 117.726 25.128 117.438 24.6C117.166 24.056 116.782 23.632 116.286 23.328C115.806 23.008 115.238 22.848 114.582 22.848C113.926 22.848 113.35 23.008 112.854 23.328C112.358 23.632 111.966 24.056 111.678 24.6C111.406 25.128 111.27 25.744 111.27 26.448C111.27 27.152 111.406 27.776 111.678 28.32C111.966 28.864 112.358 29.288 112.854 29.592C113.35 29.896 113.926 30.048 114.582 30.048ZM125.487 33V29.4H129.087V33H125.487Z" fill="#020907"/>
<defs>
<linearGradient id="paint0_linear_59_20" x1="26" y1="15" x2="26" y2="42" gradientUnits="userSpaceOnUse">
<stop stop-color="#E3EF26"/>
<stop offset="0.778846" stop-color="#076653"/>
<stop offset="1" stop-color="#0C342C"/>
</linearGradient>
<linearGradient id="paint1_linear_59_20" x1="11" y1="27" x2="11" y2="42" gradientUnits="userSpaceOnUse">
<stop stop-color="#E3EF26"/>
<stop offset="0.778846" stop-color="#076653"/>
<stop offset="1" stop-color="#0C342C"/>
</linearGradient>
<linearGradient id="paint2_linear_59_20" x1="26" y1="0" x2="26" y2="42" gradientUnits="userSpaceOnUse">
<stop stop-color="#E3EF26"/>
<stop offset="0.778846" stop-color="#076653"/>
<stop offset="1" stop-color="#0C342C"/>
</linearGradient>
</defs>
</svg>
