<svg xmlns="http://www.w3.org/2000/svg" width="138" height="45" fill="none" viewBox="0 0 138 45"><path fill="url(#a)" d="M37 27c0-6.627-5.373-12-12-12H15v12h10v15h12z"/><path fill="url(#b)" d="M0 28c0 7.732 6.268 14 14 14h8V30h-8a2 2 0 0 1-2-2v-1H0z"/><path fill="url(#c)" d="M25 0c14.912 0 27 12.088 27 27v15H40V27c0-8.284-6.716-15-15-15H14a2 2 0 0 0-2 2v1H0v-1C0 6.268 6.268 0 14 0z"/><path fill="#020907" d="M58.584 33V15.12h3.72V33zm6.627 0V19.896h3.36v2.592l-.192-.576q.456-1.176 1.464-1.728 1.032-.576 2.4-.576 1.488 0 2.592.624 1.128.624 1.752 1.752.624 1.104.624 2.592V33h-3.6v-7.656q0-.768-.312-1.32a2.1 2.1 0 0 0-.84-.864q-.528-.312-1.248-.312-.696 0-1.248.312a2.24 2.24 0 0 0-.864.864q-.288.552-.288 1.32V33zm19.503.288q-2.16 0-3.768-1.008-1.584-1.032-2.16-2.76l2.64-1.248q.504 1.056 1.368 1.656t1.92.6q.768 0 1.176-.312t.408-.864a.78.78 0 0 0-.144-.48 1.3 1.3 0 0 0-.432-.384 3 3 0 0 0-.72-.288l-2.232-.624q-1.608-.456-2.472-1.464-.864-1.032-.864-2.424 0-1.224.624-2.136t1.752-1.416q1.128-.528 2.592-.528 1.92 0 3.36.912a4.8 4.8 0 0 1 2.064 2.52l-2.664 1.248a2.46 2.46 0 0 0-1.056-1.296 2.97 2.97 0 0 0-1.704-.504q-.696 0-1.104.288a.94.94 0 0 0-.384.792q0 .264.144.48t.456.384q.336.168.816.312l2.088.624q1.632.48 2.496 1.464.864.96.864 2.376 0 1.224-.648 2.136-.624.912-1.752 1.44-1.128.504-2.664.504m7.215 4.512V19.896h3.36v2.496l-.312-.72a4.24 4.24 0 0 1 1.752-1.512q1.128-.552 2.568-.552 1.872 0 3.384.912a6.7 6.7 0 0 1 2.4 2.472q.888 1.536.888 3.456 0 1.896-.888 3.456a6.53 6.53 0 0 1-2.376 2.472q-1.512.912-3.432.912-1.344 0-2.496-.48a4.45 4.45 0 0 1-1.824-1.464l.576-.744v7.2zm6.912-7.752q1.008 0 1.776-.456a3.17 3.17 0 0 0 1.2-1.272q.432-.816.432-1.872t-.432-1.848a3.17 3.17 0 0 0-1.2-1.272q-.768-.48-1.776-.48a3.3 3.3 0 0 0-1.728.456 3.23 3.23 0 0 0-1.176 1.272q-.408.816-.408 1.872t.408 1.872q.432.816 1.176 1.272a3.3 3.3 0 0 0 1.728.456m15.741 3.24q-1.944 0-3.552-.888a7 7 0 0 1-2.544-2.424q-.936-1.56-.936-3.528 0-1.992.936-3.528a7 7 0 0 1 2.544-2.424q1.608-.888 3.552-.888t3.528.888a6.8 6.8 0 0 1 2.52 2.424q.96 1.536.96 3.528 0 1.968-.96 3.528a6.8 6.8 0 0 1-2.52 2.424q-1.584.888-3.528.888m0-3.24q.984 0 1.704-.456.744-.456 1.152-1.272.432-.816.432-1.872t-.432-1.848a3.06 3.06 0 0 0-1.152-1.272q-.72-.48-1.704-.48t-1.728.48a3.23 3.23 0 0 0-1.176 1.272q-.408.792-.408 1.848t.408 1.872q.432.816 1.176 1.272t1.728.456M125.487 33v-3.6h3.6V33z"/><defs><linearGradient id="a" x1="26" x2="26" y1="15" y2="42" gradientUnits="userSpaceOnUse"><stop stop-color="#e3ef26"/><stop offset=".779" stop-color="#076653"/><stop offset="1" stop-color="#0c342c"/></linearGradient><linearGradient id="b" x1="11" x2="11" y1="27" y2="42" gradientUnits="userSpaceOnUse"><stop stop-color="#e3ef26"/><stop offset=".779" stop-color="#076653"/><stop offset="1" stop-color="#0c342c"/></linearGradient><linearGradient id="c" x1="26" x2="26" y1="0" y2="42" gradientUnits="userSpaceOnUse"><stop stop-color="#e3ef26"/><stop offset=".779" stop-color="#076653"/><stop offset="1" stop-color="#0c342c"/></linearGradient></defs></svg>